<?xml version="1.0" encoding="iso-8859-1"?>
<!-- Generator: Adobe Illustrator 19.0.0, SVG Export Plug-In . SVG Version: 6.00 Build 0)  -->
<svg version="1.1" id="Layer_1" xmlns="http://www.w3.org/2000/svg" xmlns:xlink="http://www.w3.org/1999/xlink" x="0px" y="0px"
	 viewBox="0 0 512 512" style="enable-background:new 0 0 512 512;" xml:space="preserve">
<g>
	<g>
		<path d="M439.653,348.114v-97.679c-0.009-86.034-59.231-158.027-139.081-177.975c3.411-6.764,5.515-14.294,5.515-22.373
			C306.087,22.468,283.619,0,256,0c-27.619,0-50.087,22.468-50.087,50.087c0,8.08,2.104,15.608,5.515,22.373
			c-79.85,19.948-139.072,91.941-139.081,177.975v97.679c-19.41,6.901-33.384,25.233-33.391,47.017
			c0.01,27.668,22.419,50.075,50.087,50.085h85.158C181.938,483.321,215.606,511.991,256,512
			c40.392-0.009,74.061-28.679,81.799-66.784h85.158c27.668-0.01,50.077-22.417,50.087-50.085
			C473.036,373.347,459.063,355.015,439.653,348.114z M256,33.391c9.196,0,16.696,7.5,16.696,16.696
			c0,9.196-7.5,16.696-16.696,16.696c-9.196,0-16.696-7.5-16.696-16.696C239.304,40.891,246.805,33.391,256,33.391z
			 M172.522,250.435c0,9.22-7.475,16.696-16.696,16.696s-16.696-7.475-16.696-16.696c0.031-64.492,52.378-116.841,116.87-116.87
			c9.22,0,16.696,7.473,16.696,16.696c0,9.22-7.475,16.696-16.696,16.696v-0.002C210.013,167.038,172.605,204.447,172.522,250.435z
			 M256,478.61c-21.77-0.04-40.084-14-46.998-33.394h93.997C296.084,464.61,277.77,478.57,256,478.61z"/>
	</g>
</g>
<g>
</g>
<g>
</g>
<g>
</g>
<g>
</g>
<g>
</g>
<g>
</g>
<g>
</g>
<g>
</g>
<g>
</g>
<g>
</g>
<g>
</g>
<g>
</g>
<g>
</g>
<g>
</g>
<g>
</g>
</svg>
