<?xml version="1.0" encoding="iso-8859-1"?>
<!-- Generator: Adobe Illustrator 19.0.0, SVG Export Plug-In . SVG Version: 6.00 Build 0)  -->
<svg version="1.1" id="Layer_1" xmlns="http://www.w3.org/2000/svg" xmlns:xlink="http://www.w3.org/1999/xlink" x="0px" y="0px"
	 viewBox="0 0 512 512" style="enable-background:new 0 0 512 512;" xml:space="preserve">
<g>
	<g>
		<path d="M256,295.822c-94.256,0-170.667,76.411-170.667,170.667c0,25.135,20.376,45.511,45.511,45.511h250.311
			c25.135,0,45.511-20.376,45.511-45.511C426.667,372.233,350.256,295.822,256,295.822z"/>
	</g>
</g>
<g>
	<g>
		<path d="M256,79.644c-51.978,0-94.363,41.008-96.603,92.433c15.052,5.632,30.891,8.486,47.129,8.486
			c50.224,0,95.441-27.302,118.908-71.493C307.855,90.933,283.253,79.644,256,79.644z"/>
	</g>
</g>
<g>
	<g>
		<path d="M345.998,140.959c-12.979,19.029-29.761,35.284-49.389,47.699c-26.931,17.035-58.08,26.038-90.084,26.038
			c-14.081,0-27.927-1.727-41.382-5.126c13.55,37.051,49.113,63.496,90.856,63.496c53.412,0,96.711-43.299,96.711-96.711
			C352.711,163.857,350.315,151.925,345.998,140.959z"/>
	</g>
</g>
<g>
	<g>
		<path d="M256,0c-31.419,0-56.889,25.47-56.889,56.889c0,0.529,0.016,1.055,0.03,1.58c17.537-8.474,36.891-12.958,56.859-12.958
			c20.056,0,39.371,4.465,56.86,12.925c0.013-0.515,0.028-1.03,0.028-1.547C312.889,25.47,287.419,0,256,0z"/>
	</g>
</g>
<g>
</g>
<g>
</g>
<g>
</g>
<g>
</g>
<g>
</g>
<g>
</g>
<g>
</g>
<g>
</g>
<g>
</g>
<g>
</g>
<g>
</g>
<g>
</g>
<g>
</g>
<g>
</g>
<g>
</g>
</svg>
